<svg width="228" height="371" viewBox="0 0 228 371" fill="none" xmlns="http://www.w3.org/2000/svg">
<path fill-rule="evenodd" clip-rule="evenodd" d="M57.54 104.716L15.639 72.0187L59.962 68.5068L47.8519 28.9067L85.3933 45.982L113.368 2.3855L137.225 45.2553L171.012 27.3324L167.137 65.3582L207.584 62.5728L157.933 112.709L57.54 104.716Z" fill="#8DC63F"/>
<path fill-rule="evenodd" clip-rule="evenodd" d="M58.4438 102.394L157.018 110.241L201.439 65.3877L167.302 67.7382C166.588 67.7939 165.911 67.5227 165.422 67.0177C164.933 66.5115 164.691 65.8164 164.763 65.1164L168.186 31.5326L138.344 47.3629C137.191 47.9733 135.772 47.5507 135.14 46.4147L113.222 7.03138L87.4015 47.2697C86.7621 48.27 85.4809 48.6442 84.4055 48.1537L51.6815 33.2704L62.2452 67.8085C62.4559 68.5 62.342 69.2508 61.9351 69.8478C61.5282 70.4473 60.8719 70.8275 60.1501 70.8844L21.9451 73.912L58.4438 102.394ZM157.934 115.095C157.872 115.095 157.808 115.092 157.745 115.086L57.3518 107.095C56.8856 107.057 56.4411 106.884 56.073 106.597L14.172 73.8999C13.3969 73.2944 13.0711 72.2747 13.3545 71.3326C13.6379 70.3892 14.4699 69.7171 15.452 69.6395L56.8105 66.3626L45.5699 29.6047C45.2962 28.7073 45.5735 27.7325 46.2783 27.1124C46.9831 26.4936 47.9883 26.3471 48.8396 26.7334L84.5015 42.9537L111.359 1.09744C111.812 0.390212 112.602 -0.0118442 113.442 0.000265915C114.282 0.0269082 115.044 0.491937 115.453 1.2246L138.172 42.0503L169.894 25.2232C170.672 24.8115 171.612 24.8599 172.346 25.3516C173.075 25.8433 173.476 26.6983 173.386 27.5738L169.798 62.7828L207.422 60.1912C208.405 60.1246 209.341 60.6756 209.755 61.5778C210.168 62.4813 209.981 63.5457 209.282 64.2518L159.63 114.388C159.18 114.842 158.568 115.095 157.934 115.095Z" fill="#565656"/>
<path fill-rule="evenodd" clip-rule="evenodd" d="M168.224 72.4674C166.984 72.4674 165.936 71.5082 165.845 70.2512C165.752 68.9373 166.74 67.7953 168.056 67.7008L195.061 65.7632C196.394 65.676 197.517 66.6581 197.613 67.9721C197.706 69.2872 196.717 70.4292 195.401 70.5237L168.397 72.4613C168.339 72.4649 168.281 72.4674 168.224 72.4674Z" fill="white"/>
<path fill-rule="evenodd" clip-rule="evenodd" d="M140.739 51.1534C139.881 51.1534 139.052 50.6908 138.625 49.8794C138.01 48.7132 138.457 47.2696 139.623 46.6557L164.207 33.6978C165.373 33.0838 166.816 33.5307 167.43 34.6957C168.046 35.8619 167.599 37.3054 166.433 37.9194L141.849 50.8773C141.494 51.065 141.114 51.1534 140.739 51.1534Z" fill="white"/>
<path fill-rule="evenodd" clip-rule="evenodd" d="M28.2309 78.1588C26.9981 78.1588 25.9542 77.2106 25.8549 75.962C25.7496 74.6481 26.7305 73.4976 28.0444 73.3935L63.1057 70.6021L53.1996 38.3249C52.9247 37.4276 53.2008 36.4515 53.9068 35.8315C54.6128 35.2114 55.618 35.0673 56.4705 35.4536L86.1985 49.0085L110.996 10.4196C111.711 9.3115 113.183 8.98937 114.294 9.70266C115.402 10.4147 115.724 11.891 115.012 13.0002L89.0976 53.327C88.4558 54.3248 87.1806 54.6991 86.0992 54.2086L59.32 41.9979L68.5407 72.0444C68.7538 72.7359 68.64 73.4879 68.2331 74.0862C67.8262 74.6844 67.1698 75.0659 66.4493 75.124L28.4223 78.1515C28.3581 78.1564 28.2939 78.1588 28.2309 78.1588Z" fill="white"/>
<path fill-rule="evenodd" clip-rule="evenodd" d="M212.307 230.904C212.307 229.208 212.429 227.634 212.429 225.937C212.429 150.129 165.805 88.6096 108.282 88.6096C50.7591 88.6096 4.13513 150.129 4.13513 225.937C4.13513 227.634 4.13513 229.208 4.25502 230.904H4.13513V281.887C4.13513 329.359 43.0074 368.231 90.4791 368.231H126.204C173.677 368.231 212.549 329.359 212.549 281.887L212.307 230.904Z" fill="#F2CC38"/>
<path fill-rule="evenodd" clip-rule="evenodd" d="M6.52062 233.29V281.887C6.52062 328.182 44.1843 365.845 90.4789 365.845H126.204C172.5 365.845 210.162 328.182 210.162 281.887L209.92 230.903C209.92 230.025 209.95 229.178 209.983 228.331C210.012 227.544 210.042 226.756 210.042 225.938C210.042 151.53 164.392 90.9962 108.281 90.9962C52.1697 90.9962 6.52062 151.53 6.52062 225.938C6.52062 227.575 6.52062 229.123 6.63567 230.735L6.81611 233.29H6.52062ZM126.204 370.618H90.479C41.5528 370.618 1.74805 330.813 1.74805 281.887L1.76379 228.518C1.74805 227.661 1.74805 226.811 1.74805 225.938C1.74805 148.898 49.5382 86.2224 108.281 86.2224C167.023 86.2224 214.815 148.898 214.815 225.938C214.815 226.816 214.785 227.664 214.752 228.51C214.723 229.296 214.693 230.085 214.693 230.901L214.936 281.875C214.936 330.813 175.13 370.618 126.204 370.618Z" fill="#565656"/>
<path fill-rule="evenodd" clip-rule="evenodd" d="M126.083 363.474H90.3585C45.373 363.474 8.77258 326.874 8.77258 281.887V238.048C8.77258 237.684 8.85372 237.34 8.99904 237.031L8.89247 229.97C8.89247 229.305 8.86341 228.674 8.83556 228.045C8.80286 227.343 8.77258 226.641 8.77258 225.938C8.77258 152.838 53.3572 93.3674 108.16 93.3674C109.478 93.3674 110.547 94.4355 110.547 95.7543C110.547 97.0719 109.478 98.14 108.16 98.14C55.99 98.14 13.5452 155.471 13.5452 225.938C13.5452 226.568 13.5755 227.199 13.6033 227.829C13.636 228.53 13.6663 229.232 13.6663 229.935L13.7874 238.012C13.7922 238.391 13.7087 238.763 13.5452 239.096V281.887C13.5452 324.242 48.0033 358.702 90.3585 358.702H126.083C127.401 358.702 128.47 359.77 128.47 361.087C128.47 362.405 127.401 363.474 126.083 363.474Z" fill="white"/>
<path fill-rule="evenodd" clip-rule="evenodd" d="M107.312 331.296C107.071 330.933 106.585 330.813 106.343 331.054L90.9633 341.106L76.1902 331.054C75.948 330.933 75.5847 330.933 75.3425 331.054C74.9792 331.296 74.9792 331.78 75.2202 332.144L88.6636 347.887L88.9058 348.129C90.1168 349.219 92.0532 349.098 93.1444 347.887L107.312 332.144C107.434 332.024 107.554 331.659 107.312 331.296Z" fill="#F0A63A"/>
<path fill-rule="evenodd" clip-rule="evenodd" d="M109.613 115.13C109.371 114.767 108.887 114.646 108.644 114.888L93.2645 124.939L78.4901 114.888C78.2479 114.767 77.8846 114.767 77.6424 114.888C77.2791 115.13 77.2791 115.615 77.5213 115.978L90.9636 131.721C91.0847 131.842 91.2058 131.963 91.2058 131.963C92.4168 133.053 94.3544 132.932 95.4443 131.721L109.613 115.978C109.734 115.736 109.855 115.372 109.613 115.13Z" fill="#F0A63A"/>
<path fill-rule="evenodd" clip-rule="evenodd" d="M160.234 132.932C160.112 132.69 159.75 132.569 159.507 132.811L148.487 139.956L137.952 132.811C137.709 132.69 137.467 132.69 137.347 132.811C137.103 133.053 137.103 133.296 137.347 133.538L146.912 144.679C146.912 144.8 147.035 144.8 147.155 144.921C148.002 145.769 149.457 145.648 150.182 144.8L160.234 133.538C160.234 133.417 160.356 133.175 160.234 132.932Z" fill="#F0A63A"/>
<path fill-rule="evenodd" clip-rule="evenodd" d="M52.0904 291.696C51.8482 291.332 51.4849 291.332 51.1216 291.455L36.8317 300.901L23.0261 291.575C22.7839 291.455 22.4206 291.455 22.1784 291.575C21.9362 291.818 21.8151 292.301 22.0573 292.543L34.5307 307.198C34.6518 307.318 34.6518 307.439 34.7729 307.439C35.984 308.529 37.6794 308.409 38.7693 307.198L51.8482 292.543C52.2115 292.301 52.2115 291.938 52.0904 291.696Z" fill="#F0A63A"/>
<path fill-rule="evenodd" clip-rule="evenodd" d="M161.567 331.659C161.325 331.296 160.961 331.296 160.597 331.418L146.307 340.864L132.503 331.538C132.26 331.418 131.897 331.418 131.655 331.538C131.413 331.781 131.292 332.265 131.533 332.507L144.007 347.161C144.128 347.281 144.128 347.402 144.248 347.402C145.459 348.492 147.156 348.372 148.246 347.161L161.325 332.507C161.688 332.265 161.688 331.901 161.567 331.659Z" fill="#F0A63A"/>
<path fill-rule="evenodd" clip-rule="evenodd" d="M198.986 193.362C198.744 192.998 198.38 192.998 198.017 193.119L183.727 202.565L169.921 193.24C169.679 193.119 169.316 193.119 169.074 193.24C168.833 193.483 168.71 193.967 168.953 194.209L181.426 208.862C181.548 208.984 181.548 209.105 181.668 209.105C182.879 210.195 184.576 210.073 185.665 208.862L198.744 194.209C199.108 193.967 199.108 193.604 198.986 193.362Z" fill="#F0A63A"/>
<path fill-rule="evenodd" clip-rule="evenodd" d="M52.6964 215.523C52.4542 215.16 52.0909 215.16 51.7276 215.281L37.4376 224.727L23.6321 215.281C23.3899 215.16 23.0266 215.16 22.7844 215.281C22.5422 215.523 22.4211 216.007 22.6633 216.25L35.1367 230.903C35.2578 231.024 35.2578 231.144 35.3789 231.144C36.5899 232.235 38.2853 232.114 39.3752 230.903L52.4542 216.25C52.8175 216.129 52.8175 215.766 52.6964 215.523Z" fill="#F0A63A"/>
<path fill-rule="evenodd" clip-rule="evenodd" d="M62.5042 320.396C62.3831 320.275 62.1409 320.154 62.021 320.275L54.3916 325.241L47.0032 320.275C46.8833 320.154 46.6399 320.154 46.52 320.275C46.3977 320.396 46.3977 320.639 46.52 320.76L53.1806 328.51L53.3005 328.631C53.906 329.237 54.8748 329.116 55.4803 328.51L62.5042 320.76V320.396Z" fill="#F0A63A"/>
<path fill-rule="evenodd" clip-rule="evenodd" d="M140.857 276.68C140.736 276.558 140.494 276.438 140.374 276.558L132.743 281.524L125.356 276.558C125.236 276.438 124.993 276.438 124.872 276.558C124.751 276.68 124.751 276.922 124.872 277.043L131.532 284.794L131.654 284.915C132.259 285.52 133.228 285.399 133.833 284.794L140.857 277.043V276.68Z" fill="#F0A63A"/>
<path fill-rule="evenodd" clip-rule="evenodd" d="M174.282 227.634C174.159 227.511 173.917 227.391 173.797 227.511L166.168 232.478L158.78 227.511C158.66 227.391 158.416 227.391 158.296 227.511C158.174 227.634 158.174 227.876 158.296 227.997L164.957 235.747L165.077 235.869C165.682 236.474 166.651 236.353 167.257 235.747L174.282 227.997C174.403 227.997 174.403 227.755 174.282 227.634Z" fill="#F0A63A"/>
<path fill-rule="evenodd" clip-rule="evenodd" d="M71.7096 150.976C71.5873 150.855 71.3463 150.734 71.2252 150.855L63.5958 155.82L56.2087 150.855C56.0876 150.734 55.8441 150.734 55.7242 150.855C55.6031 150.976 55.6031 151.218 55.7242 151.339L62.3848 159.09L62.5047 159.211C63.1102 159.816 64.0802 159.695 64.6857 159.09L71.7096 151.339V150.976Z" fill="#F0A63A"/>
<path fill-rule="evenodd" clip-rule="evenodd" d="M182.274 155.457C182.153 155.336 181.911 155.215 181.79 155.336L174.16 160.301L166.773 155.336C166.652 155.215 166.41 155.215 166.289 155.336C166.168 155.457 166.168 155.699 166.289 155.82L172.949 163.571L173.07 163.692C173.676 164.297 174.645 164.176 175.25 163.571L182.274 155.82C182.395 155.82 182.395 155.578 182.274 155.457Z" fill="#F0A63A"/>
<path fill-rule="evenodd" clip-rule="evenodd" d="M85.0302 222.305H66.0173C63.7152 222.305 61.7787 220.367 61.7787 218.188C61.7787 215.886 63.5953 214.07 66.0173 214.07H85.0302C87.3299 214.07 89.2687 216.007 89.2687 218.188C89.2687 220.367 87.3299 222.305 85.0302 222.305Z" fill="#D2E6FC"/>
<path fill-rule="evenodd" clip-rule="evenodd" d="M66.0173 216.457C64.9443 216.457 64.1656 217.186 64.1656 218.188C64.1656 219.077 65.0654 219.918 66.0173 219.918H85.0302C85.982 219.918 86.8818 219.077 86.8818 218.188C86.8818 217.297 85.982 216.457 85.0302 216.457H66.0173ZM85.0301 224.692H66.0172C62.4253 224.692 59.3917 221.714 59.3917 218.188C59.3917 214.541 62.303 211.684 66.0172 211.684H85.0301C88.6219 211.684 91.6555 214.663 91.6555 218.188C91.6555 221.714 88.6219 224.692 85.0301 224.692Z" fill="#565656"/>
<path fill-rule="evenodd" clip-rule="evenodd" d="M96.7773 174.106C110.086 174.106 120.875 184.897 120.875 198.206C120.875 211.516 110.086 222.305 96.7773 222.305C83.467 222.305 72.6781 211.516 72.6781 198.206C72.6781 184.897 83.467 174.106 96.7773 174.106Z" fill="white"/>
<path fill-rule="evenodd" clip-rule="evenodd" d="M96.7771 176.493C84.8038 176.493 75.0636 186.233 75.0636 198.206C75.0636 210.178 84.8038 219.918 96.7771 219.918C108.749 219.918 118.489 210.178 118.489 198.206C118.489 186.233 108.749 176.493 96.7771 176.493ZM96.7772 224.692C82.1724 224.692 70.2911 212.809 70.2911 198.206C70.2911 183.602 82.1724 171.721 96.7772 171.721C111.382 171.721 123.262 183.602 123.262 198.206C123.262 212.809 111.382 224.692 96.7772 224.692Z" fill="#565656"/>
<path fill-rule="evenodd" clip-rule="evenodd" d="M110.461 198.69C110.461 200.143 108.887 201.235 108.522 202.446C108.039 203.776 108.645 205.593 107.917 206.684C107.07 207.773 105.133 207.773 104.043 208.62C102.953 209.468 102.347 211.285 101.015 211.648C99.8043 212.011 98.2287 210.923 96.7767 210.923C95.3235 210.923 93.7492 212.011 92.5382 211.648C91.2061 211.164 90.6006 209.347 89.5106 208.62C88.4207 207.773 86.4831 207.773 85.6354 206.684C84.7877 205.593 85.3932 203.776 85.0299 202.446C84.6666 201.235 83.0911 200.024 83.0911 198.69C83.0911 197.358 84.6666 196.147 85.0299 194.936C85.3932 193.604 84.9076 191.787 85.6354 190.697C86.4831 189.608 88.4207 189.608 89.5106 188.76C90.6006 187.912 91.2061 186.096 92.5382 185.732C93.7492 185.369 95.3235 186.459 96.7767 186.459C98.2287 186.459 99.6831 185.369 101.015 185.732C102.347 186.217 102.953 188.033 104.043 188.76C105.133 189.608 107.07 189.608 107.917 190.697C108.766 191.787 108.16 193.604 108.522 194.936C108.887 196.147 110.461 197.237 110.461 198.69Z" fill="#565656"/>
<path fill-rule="evenodd" clip-rule="evenodd" d="M87.9362 184.158C91.0134 184.158 93.5081 186.652 93.5081 189.728C93.5081 192.806 91.0134 195.299 87.9362 195.299C84.8602 195.299 82.3655 192.806 82.3655 189.728C82.3655 186.652 84.8602 184.158 87.9362 184.158Z" fill="white"/>
<path fill-rule="evenodd" clip-rule="evenodd" d="M95.9297 196.995C97.6687 196.995 99.0783 198.405 99.0783 200.143C99.0783 201.882 97.6687 203.292 95.9297 203.292C94.1895 203.292 92.7798 201.882 92.7798 200.143C92.7798 198.405 94.1895 196.995 95.9297 196.995Z" fill="white"/>
<path fill-rule="evenodd" clip-rule="evenodd" d="M69.5301 173.138L94.839 166.599L109.009 173.138L99.0776 179.072L87.9363 184.037H76.0683H70.6188L69.5301 173.138Z" fill="#F2CC38"/>
<path fill-rule="evenodd" clip-rule="evenodd" d="M73.6091 186.589C68.4683 186.589 65.1211 186.046 65.006 186.025C63.7078 185.801 62.8383 184.568 63.0611 183.27C63.284 181.972 64.518 181.096 65.8162 181.321C67.3493 181.584 103.559 187.383 119.607 156.536C120.214 155.367 121.657 154.909 122.826 155.52C123.994 156.129 124.449 157.569 123.841 158.738C111.169 183.096 86.6335 186.589 73.6091 186.589Z" fill="#565656"/>
<path fill-rule="evenodd" clip-rule="evenodd" d="M198.986 222.305H176.34C174.039 222.305 172.101 220.367 172.101 218.188C172.101 215.886 174.039 214.07 176.34 214.07H198.986C201.287 214.07 203.224 216.007 203.224 218.188C203.224 220.367 201.287 222.305 198.986 222.305Z" fill="#D2E6FC"/>
<path fill-rule="evenodd" clip-rule="evenodd" d="M176.34 216.457C175.318 216.457 174.489 217.234 174.489 218.188C174.489 219.077 175.388 219.918 176.34 219.918H198.986C199.938 219.918 200.838 219.077 200.838 218.188C200.838 217.297 199.938 216.457 198.986 216.457H176.34ZM198.986 224.692H176.34C172.748 224.692 169.715 221.714 169.715 218.188C169.715 214.601 172.686 211.684 176.34 211.684H198.986C202.578 211.684 205.611 214.663 205.611 218.188C205.611 221.714 202.578 224.692 198.986 224.692Z" fill="#565656"/>
<path fill-rule="evenodd" clip-rule="evenodd" d="M168.347 174.106C181.656 174.106 192.447 184.897 192.447 198.206C192.447 211.516 181.656 222.305 168.347 222.305C155.038 222.305 144.248 211.516 144.248 198.206C144.248 184.897 155.038 174.106 168.347 174.106Z" fill="white"/>
<path fill-rule="evenodd" clip-rule="evenodd" d="M168.347 176.493C156.374 176.493 146.634 186.233 146.634 198.206C146.634 210.178 156.374 219.918 168.347 219.918C180.321 219.918 190.061 210.178 190.061 198.206C190.061 186.233 180.321 176.493 168.347 176.493ZM168.348 224.692C153.743 224.692 141.861 212.809 141.861 198.206C141.861 183.602 153.743 171.721 168.348 171.721C182.952 171.721 194.834 183.602 194.834 198.206C194.834 212.809 182.952 224.692 168.348 224.692Z" fill="#565656"/>
<path fill-rule="evenodd" clip-rule="evenodd" d="M154.664 198.69C154.664 200.143 156.238 201.235 156.602 202.446C157.086 203.776 156.481 205.593 157.207 206.684C158.055 207.773 159.991 207.773 161.082 208.62C162.172 209.468 162.778 211.285 164.11 211.648C165.321 212.011 166.895 210.923 168.348 210.923C169.802 210.923 171.376 212.011 172.587 211.648C173.918 211.164 174.523 209.347 175.615 208.62C176.704 207.773 178.642 207.773 179.49 206.684C180.337 205.593 179.732 203.776 180.095 202.446C180.459 201.235 182.033 200.024 182.033 198.69C182.033 197.358 180.459 196.147 180.095 194.936C179.611 193.604 180.216 191.787 179.49 190.697C178.642 189.608 176.704 189.608 175.615 188.76C174.523 187.912 173.918 186.096 172.587 185.732C171.376 185.369 169.802 186.459 168.348 186.459C166.895 186.459 165.321 185.369 164.11 185.732C162.778 186.217 162.172 188.033 161.082 188.76C159.991 189.608 158.055 189.608 157.207 190.697C156.358 191.787 156.964 193.604 156.602 194.936C156.238 196.147 154.664 197.237 154.664 198.69Z" fill="#565656"/>
<path fill-rule="evenodd" clip-rule="evenodd" d="M161.445 184.158C164.522 184.158 167.017 186.652 167.017 189.728C167.017 192.806 164.522 195.299 161.445 195.299C158.369 195.299 155.875 192.806 155.875 189.728C155.875 186.652 158.369 184.158 161.445 184.158Z" fill="white"/>
<path fill-rule="evenodd" clip-rule="evenodd" d="M169.195 196.995C170.934 196.995 172.344 198.405 172.344 200.143C172.344 201.882 170.934 203.292 169.195 203.292C167.455 203.292 166.046 201.882 166.046 200.143C166.046 198.405 167.455 196.995 169.195 196.995Z" fill="white"/>
<path fill-rule="evenodd" clip-rule="evenodd" d="M195.595 173.138L170.285 166.599L156.116 173.138L166.047 179.072L177.188 184.037H189.177H194.505L195.595 173.138Z" fill="#F2CC38"/>
<path fill-rule="evenodd" clip-rule="evenodd" d="M191.516 186.589C178.493 186.589 153.958 183.098 141.285 158.738C140.677 157.569 141.131 156.129 142.299 155.52C143.468 154.909 144.912 155.367 145.518 156.536C161.602 187.449 198.932 181.387 199.307 181.321C200.617 181.1 201.84 181.968 202.064 183.268C202.289 184.566 201.419 185.801 200.119 186.025C200.004 186.046 196.655 186.589 191.516 186.589Z" fill="#565656"/>
<path fill-rule="evenodd" clip-rule="evenodd" d="M147.276 252.666C145.958 252.666 144.889 251.597 144.889 250.279C144.889 243.649 139.495 238.255 132.866 238.255C126.234 238.255 120.84 243.649 120.84 250.279C120.84 251.597 119.771 252.666 118.453 252.666C117.136 252.666 116.067 251.597 116.067 250.279C116.067 241.018 123.603 233.481 132.866 233.481C142.126 233.481 149.663 241.018 149.663 250.279C149.663 251.597 148.593 252.666 147.276 252.666Z" fill="#565656"/>
<path fill-rule="evenodd" clip-rule="evenodd" d="M34.7731 292.301C34.7731 292.301 34.6508 292.301 34.7731 292.301C21.573 292.18 14.0635 277.528 9.584 266.386C5.34546 255.849 2.80233 245.556 2.68123 245.194C1.3479 240.106 4.61885 234.778 9.7051 233.567C14.7914 232.356 20.1186 235.506 21.3296 240.592C24.4795 253.913 30.5345 268.081 34.5309 272.198C36.4673 269.897 40.9492 262.631 46.1554 241.923C47.4887 236.836 52.6961 233.689 57.7823 234.9C62.8686 236.231 66.0172 241.438 64.8062 246.525C59.3566 269.171 51.2428 292.301 34.7731 292.301Z" fill="#F2CC38"/>
<path fill-rule="evenodd" clip-rule="evenodd" d="M4.98941 244.589C5.01968 244.7 5.0657 244.867 5.12383 245.085C7.58461 254.359 10.1108 261.304 11.7977 265.496C15.9902 275.924 22.9342 289.798 34.784 289.915C49.9664 289.903 57.5631 266.423 62.4859 245.967C63.3953 242.144 61.0157 238.213 57.178 237.208C53.4057 236.316 49.4699 238.692 48.4636 242.528C43.2162 263.398 38.6253 271.04 36.3559 273.735C35.9211 274.252 35.2889 274.559 34.6144 274.585C33.9532 274.597 33.2884 274.346 32.8173 273.861C28.3886 269.296 22.1943 254.619 19.0069 241.14C18.1119 237.381 14.1168 234.967 10.2573 235.888C8.42868 236.324 6.80593 237.53 5.80563 239.199C4.80533 240.865 4.51469 242.78 4.98941 244.589ZM34.7733 294.688H34.7188C34.6897 294.688 34.6618 294.686 34.634 294.686C19.9916 294.468 12.0631 278.948 7.37045 267.276C5.63386 262.96 3.03382 255.818 0.511279 246.309L0.397444 245.885C-0.429678 242.738 0.0462498 239.52 1.7126 236.743C3.37048 233.98 6.08194 231.977 9.15307 231.245C12.2278 230.512 15.4443 231.017 18.1981 232.672C20.981 234.342 22.9186 236.959 23.6513 240.039C26.3555 251.476 31.0034 262.721 34.4196 268.107C36.5002 264.491 39.9515 256.812 43.8413 241.341C45.5052 234.993 52.0023 231.076 58.3347 232.578C64.7131 234.248 68.6356 240.747 67.1279 247.078C56.9723 289.277 44.5025 294.688 34.7733 294.688Z" fill="#565656"/>
<path fill-rule="evenodd" clip-rule="evenodd" d="M34.8931 282.699C34.2367 282.699 33.6094 282.429 33.1577 281.951L29.0415 277.59C23.5229 271.549 17.1118 255.072 14.0673 242.574C13.7548 241.653 12.981 241.04 12.126 241.04C11.9686 241.04 11.856 241.034 11.753 241.045C11.6646 241.074 11.6162 241.092 11.5266 241.111C10.9526 241.232 10.6292 241.593 10.4573 241.875C10.1945 242.307 10.1109 242.839 10.2223 243.368C10.4948 244.658 9.67009 245.924 8.37915 246.194C7.09669 246.473 5.82513 245.641 5.55265 244.353C5.19056 242.633 5.48241 240.873 6.37735 239.398C7.28803 237.898 8.71945 236.86 10.4161 236.468C11.0809 236.267 11.5895 236.267 12.126 236.267C15.0991 236.267 17.7173 238.254 18.6425 241.211C18.6582 241.261 18.6716 241.31 18.6837 241.36C21.9304 254.737 28.1465 269.533 32.5389 274.343L34.7913 276.729L36.9433 274.174C39.7722 270.892 44.1718 262.784 49.1685 242.679C49.9108 239.712 52.5448 237.72 55.7225 237.72C56.1911 237.72 56.833 237.72 57.5632 237.962C58.8142 238.376 59.4924 239.726 59.0794 240.977C58.6652 242.228 57.3138 242.904 56.0628 242.494C55.9744 242.482 55.8496 242.492 55.7225 242.494C54.7282 242.494 54.0089 242.995 53.7982 243.834C49.6057 260.704 45.1576 271.954 40.5751 277.269L36.7181 281.85C36.2809 282.371 35.6403 282.679 34.9609 282.698C34.9379 282.699 34.9161 282.699 34.8931 282.699Z" fill="white"/>
<path fill-rule="evenodd" clip-rule="evenodd" d="M223.933 268.566C225.265 264.206 225.144 258.03 220.058 255.123C214.608 251.975 210.128 258.877 210.128 258.877C207.706 266.991 205.768 270.624 204.798 272.199C201.529 268.081 196.685 253.912 194.021 240.591C192.93 235.505 188.692 232.235 184.453 233.567C180.214 234.899 177.673 240.107 178.641 245.193C178.761 245.556 180.7 255.85 184.211 266.386C187.844 277.527 194.021 292.18 204.798 292.301C213.64 292.301 219.452 282.492 223.691 269.292C223.691 269.171 223.811 268.929 223.811 268.808C223.933 268.808 223.933 268.687 223.933 268.566Z" fill="#F2CC38"/>
<mask id="mask0_4_1618" style="mask-type:alpha" maskUnits="userSpaceOnUse" x="176" y="230" width="52" height="65">
<path fill-rule="evenodd" clip-rule="evenodd" d="M176.046 230.884H227.029V294.687H176.046V230.884Z" fill="white"/>
</mask>
<g mask="url(#mask0_4_1618)">
<path fill-rule="evenodd" clip-rule="evenodd" d="M180.984 244.747C181.029 244.936 181.09 245.21 181.163 245.558C181.755 248.356 183.555 256.868 186.475 265.631C191.779 281.898 197.779 289.837 204.825 289.914C211.343 289.914 216.763 282.984 221.366 268.728C221.398 268.576 221.437 268.449 221.469 268.351C221.515 268.115 221.595 267.892 221.705 267.686C222.175 266.048 223.568 259.877 218.874 257.197C215.873 255.464 213.038 258.925 212.303 259.929C210.484 265.958 208.645 270.507 206.831 273.45C206.422 274.113 205.716 274.535 204.94 274.581C204.166 274.633 203.413 274.291 202.93 273.683C199.389 269.222 194.448 254.892 191.681 241.06C191.231 238.964 190.037 237.157 188.496 236.257C187.753 235.823 186.569 235.402 185.169 235.844C182.111 236.806 180.234 240.799 180.985 244.747H180.984ZM204.798 294.687C192.319 294.548 185.778 278.892 181.943 267.127C178.941 258.119 177.1 249.409 176.494 246.546C176.418 246.191 176.369 245.946 176.342 245.832C176.324 245.768 176.309 245.704 176.297 245.64C175.087 239.286 178.355 232.982 183.738 231.291C186.134 230.537 188.675 230.839 190.898 232.133C193.621 233.721 195.61 236.62 196.354 240.091C198.564 251.141 201.978 261.573 204.654 267.215C205.571 265.1 206.649 262.187 207.84 258.196C207.906 257.976 208.001 257.769 208.125 257.578C210.102 254.532 215.386 249.664 221.252 253.059C227.385 256.562 227.807 263.789 226.286 269.023C226.238 269.355 226.136 269.649 225.997 269.907C225.986 269.946 225.974 269.984 225.962 270.021C220.633 286.618 213.71 294.687 204.798 294.687Z" fill="#565656"/>
</g>
<path fill-rule="evenodd" clip-rule="evenodd" d="M223.691 269.292C223.691 269.171 223.812 268.929 223.812 268.809C223.812 268.929 223.812 269.171 223.691 269.292Z" fill="#F2CC38"/>
<path fill-rule="evenodd" clip-rule="evenodd" d="M223.691 271.678C223.383 271.678 223.072 271.619 222.777 271.497C221.886 271.127 221.304 270.257 221.304 269.291C221.304 268.883 221.403 268.552 221.468 268.352C221.681 267.252 222.65 266.421 223.812 266.421C225.124 266.421 226.19 267.482 226.197 268.793V268.795V268.796V268.808V268.811C226.196 269.707 225.921 270.436 225.379 270.98C224.922 271.436 224.312 271.678 223.691 271.678Z" fill="#565656"/>
<path fill-rule="evenodd" clip-rule="evenodd" d="M204.798 282.7C204.049 282.7 203.34 282.346 202.888 281.744L199.62 277.383C194.997 271.309 189.733 254.811 187.318 242.379C187.154 241.5 186.605 241.04 186.27 241.04C186.237 241.04 186.207 241.04 186.176 241.038C186.129 241.054 186.083 241.069 186.036 241.082C185.612 241.193 184.962 242.173 185.214 243.368C185.486 244.658 184.661 245.925 183.372 246.195C182.087 246.474 180.818 245.642 180.545 244.353C179.817 240.906 181.632 237.448 184.607 236.527C185.254 236.267 185.833 236.267 186.27 236.267C189.027 236.267 191.44 238.46 192.006 241.484C194.551 254.586 199.783 269.715 203.429 274.507L204.71 276.216L205.979 274.363C207.167 272.679 209.023 269.185 211.236 261.935C211.62 260.675 212.954 259.963 214.215 260.349C215.476 260.733 216.185 262.068 215.8 263.328C213.876 269.634 211.891 274.264 209.897 277.088L206.767 281.661C206.334 282.296 205.619 282.682 204.849 282.699C204.833 282.7 204.815 282.7 204.798 282.7Z" fill="white"/>
</svg>
